<?xml version="1.0" encoding="UTF-8"?>
<!DOCTYPE svg PUBLIC "-//W3C//DTD SVG 1.1//EN" "http://www.w3.org/Graphics/SVG/1.1/DTD/svg11.dtd">
<svg xmlns="http://www.w3.org/2000/svg" version="1.1" width="180px" height="180px" style="shape-rendering:geometricPrecision; text-rendering:geometricPrecision; image-rendering:optimizeQuality; fill-rule:evenodd; clip-rule:evenodd" xmlns:xlink="http://www.w3.org/1999/xlink">
<g><path style="opacity:1" fill="#78ebc4" d="M 142.5,51.5 C 144.112,53.2976 145.612,55.2976 147,57.5C 147.687,63.2037 147.521,68.8704 146.5,74.5C 142.895,73.0371 139.229,71.5371 135.5,70C 129.714,64.1848 122.714,61.0182 114.5,60.5C 113.614,53.5433 113.28,46.5433 113.5,39.5C 114.694,38.2227 116.36,37.5561 118.5,37.5C 120.167,37.6667 121.833,37.8333 123.5,38C 129.91,42.5251 136.243,47.0251 142.5,51.5 Z"/></g>
<g><path style="opacity:1" fill="#51e4b1" d="M 102.5,75.5 C 101.06,74.6371 99.7264,74.6371 98.5,75.5C 94.6996,73.18 90.6996,71.3467 86.5,70C 85.0542,67.3062 83.0542,66.4729 80.5,67.5C 77.8122,64.9778 74.9789,62.6445 72,60.5C 71.6667,60.8333 71.3333,61.1667 71,61.5C 67.7933,59.5937 64.6267,57.5937 61.5,55.5C 60.914,55.7093 60.414,56.0426 60,56.5C 59.5348,55.0692 58.7014,53.9025 57.5,53C 53.6702,52.1842 50.0036,50.8509 46.5,49C 44.5273,48.5045 42.5273,48.3379 40.5,48.5C 45.4335,45.0222 50.4335,41.5222 55.5,38C 58.8333,37.3333 62.1667,37.3333 65.5,38C 78.0353,50.3682 90.3686,62.8682 102.5,75.5 Z"/></g>
<g><path style="opacity:1" fill="#3be2a9" d="M 40.5,48.5 C 42.5273,48.3379 44.5273,48.5045 46.5,49C 50.0036,50.8509 53.6702,52.1842 57.5,53C 58.7014,53.9025 59.5348,55.0692 60,56.5C 60.414,56.0426 60.914,55.7093 61.5,55.5C 64.6267,57.5937 67.7933,59.5937 71,61.5C 71.3333,61.1667 71.6667,60.8333 72,60.5C 74.9789,62.6445 77.8122,64.9778 80.5,67.5C 83.0542,66.4729 85.0542,67.3062 86.5,70C 90.6996,71.3467 94.6996,73.18 98.5,75.5C 99.7264,74.6371 101.06,74.6371 102.5,75.5C 106.083,79.4694 106.417,83.8027 103.5,88.5C 100.452,90.8815 97.7851,93.5482 95.5,96.5C 95.4392,93.9505 94.1059,92.4505 91.5,92C 93.5,92 95.5,92 97.5,92C 89.2881,88.891 81.7881,85.391 75,81.5C 73.8904,79.9632 72.3904,79.2965 70.5,79.5C 70.719,78.325 70.3857,77.325 69.5,76.5C 59.7898,71.3022 49.7898,65.9688 39.5,60.5C 38.374,57.7968 36.7073,57.1301 34.5,58.5C 33.5,57.8333 32.5,57.1667 31.5,56.5C 31.5106,54.9826 32.1772,53.8159 33.5,53C 35.7167,51.2765 38.05,49.7765 40.5,48.5 Z"/></g>
<g><path style="opacity:1" fill="#64e5b9" d="M 113.5,39.5 C 113.28,46.5433 113.614,53.5433 114.5,60.5C 122.714,61.0182 129.714,64.1848 135.5,70C 139.229,71.5371 142.895,73.0371 146.5,74.5C 147.521,68.8704 147.687,63.2037 147,57.5C 145.612,55.2976 144.112,53.2976 142.5,51.5C 145.112,52.2775 146.945,53.9441 148,56.5C 148.5,72.8299 148.667,89.1633 148.5,105.5C 147.681,102.695 147.181,99.6946 147,96.5C 146.517,97.448 146.351,98.448 146.5,99.5C 138.262,95.2471 129.929,91.0804 121.5,87C 118.883,86.1785 116.216,85.6785 113.5,85.5C 113.662,83.4727 113.495,81.4727 113,79.5C 112.814,82.0356 112.314,84.369 111.5,86.5C 111.333,71.163 111.5,55.8297 112,40.5C 112.383,39.944 112.883,39.6107 113.5,39.5 Z"/></g>
<g><path style="opacity:1" fill="#1cdd9a" d="M 95.5,96.5 C 87.1973,107.442 79.1973,107.109 71.5,95.5C 70.5449,93.2901 69.0449,92.9568 67,94.5C 66.3333,93.1667 65.6667,91.8333 65,90.5C 55.022,79.6878 44.8553,69.0212 34.5,58.5C 36.7073,57.1301 38.374,57.7968 39.5,60.5C 49.7898,65.9688 59.7898,71.3022 69.5,76.5C 70.3857,77.325 70.719,78.325 70.5,79.5C 72.3904,79.2965 73.8904,79.9632 75,81.5C 81.7881,85.391 89.2881,88.891 97.5,92C 95.5,92 93.5,92 91.5,92C 94.1059,92.4505 95.4392,93.9505 95.5,96.5 Z"/></g>
<g><path style="opacity:0.999" fill="#05b175" d="M 31.5,56.5 C 32.5,57.1667 33.5,57.8333 34.5,58.5C 44.8553,69.0212 55.022,79.6878 65,90.5C 65.6667,91.8333 66.3333,93.1667 67,94.5C 69.0449,92.9568 70.5449,93.2901 71.5,95.5C 70.3121,94.3157 69.1455,94.3157 68,95.5C 67.8312,110.006 67.3312,124.339 66.5,138.5C 66.5375,132.679 65.2041,127.345 62.5,122.5C 57.8444,121.905 54.0111,119.905 51,116.5C 50.6667,116.833 50.3333,117.167 50,117.5C 47.9267,115.226 45.5933,113.226 43,111.5C 42.6667,111.833 42.3333,112.167 42,112.5C 38.7312,108.726 35.7312,108.726 33,112.5C 32.6667,111.167 32.3333,109.833 32,108.5C 31.8255,113.351 31.3255,118.018 30.5,122.5C 30.1693,100.327 30.5026,78.327 31.5,56.5 Z"/></g>
<g><path style="opacity:1" fill="#35e0a5" d="M 148.5,105.5 C 148.666,111.176 148.499,116.843 148,122.5C 146.945,125.056 145.112,126.723 142.5,127.5C 142.062,127.565 141.728,127.399 141.5,127C 146.547,122.833 148.214,117.666 146.5,111.5C 141.332,109.672 136.165,107.672 131,105.5C 129.743,105.85 129.409,106.517 130,107.5C 132.167,108.333 133.667,109.833 134.5,112C 133.975,112.692 133.308,113.192 132.5,113.5C 127.382,110.863 122.549,107.863 118,104.5C 117.667,104.833 117.333,105.167 117,105.5C 112.569,102.87 108.069,100.537 103.5,98.5C 105.461,96.0365 107.628,93.7032 110,91.5C 111.009,89.9751 111.509,88.3084 111.5,86.5C 112.314,84.369 112.814,82.0356 113,79.5C 113.495,81.4727 113.662,83.4727 113.5,85.5C 116.216,85.6785 118.883,86.1785 121.5,87C 129.929,91.0804 138.262,95.2471 146.5,99.5C 146.351,98.448 146.517,97.448 147,96.5C 147.181,99.6946 147.681,102.695 148.5,105.5 Z"/></g>
<g><path style="opacity:1" fill="#18dd99" d="M 103.5,98.5 C 108.069,100.537 112.569,102.87 117,105.5C 117.333,105.167 117.667,104.833 118,104.5C 122.549,107.863 127.382,110.863 132.5,113.5C 133.308,113.192 133.975,112.692 134.5,112C 133.667,109.833 132.167,108.333 130,107.5C 129.409,106.517 129.743,105.85 131,105.5C 136.165,107.672 141.332,109.672 146.5,111.5C 148.214,117.666 146.547,122.833 141.5,127C 141.728,127.399 142.062,127.565 142.5,127.5C 140.178,129.664 137.511,131.331 134.5,132.5C 130.951,132.561 127.618,131.727 124.5,130C 118.22,124.715 111.22,120.715 103.5,118C 100.879,115.041 97.8795,113.541 94.5,113.5C 93.4173,112.635 93.2506,111.635 94,110.5C 97.0726,106.939 99.9059,103.272 102.5,99.5C 102.5,98.8333 102.833,98.5 103.5,98.5 Z"/></g>
<g><path style="opacity:1" fill="#03a970" d="M 66.5,138.5 C 66.1961,139.15 65.8627,139.817 65.5,140.5C 62.2156,141.657 58.8823,141.824 55.5,141C 48.6185,136.19 41.6185,131.523 34.5,127C 32.9586,125.629 31.6253,124.129 30.5,122.5C 31.3255,118.018 31.8255,113.351 32,108.5C 32.3333,109.833 32.6667,111.167 33,112.5C 35.7312,108.726 38.7312,108.726 42,112.5C 42.3333,112.167 42.6667,111.833 43,111.5C 45.5933,113.226 47.9267,115.226 50,117.5C 50.3333,117.167 50.6667,116.833 51,116.5C 54.0111,119.905 57.8444,121.905 62.5,122.5C 65.2041,127.345 66.5375,132.679 66.5,138.5 Z"/></g>
<g><path style="opacity:1" fill="#0ac481" d="M 102.5,99.5 C 99.9059,103.272 97.0726,106.939 94,110.5C 93.2506,111.635 93.4173,112.635 94.5,113.5C 97.8795,113.541 100.879,115.041 103.5,118C 111.22,120.715 118.22,124.715 124.5,130C 127.618,131.727 130.951,132.561 134.5,132.5C 130.077,137.412 124.577,140.412 118,141.5C 115.7,141.506 113.534,141.006 111.5,140C 105.389,133.553 99.2222,127.053 93,120.5C 91.2591,116.906 91.0924,113.239 92.5,109.5C 95.521,105.812 98.8544,102.479 102.5,99.5 Z"/></g>
</svg>
